<svg id="Layer_1" data-name="Layer 1" xmlns="http://www.w3.org/2000/svg" viewBox="0 0 50 50"><defs><style>.cls-1{fill:#aeb6be;}</style></defs><title>iconos_boletos</title><path class="cls-1" d="M20.64,35.26C17.71,34.08,16.72,32,17,29.08a41.93,41.93,0,0,0,0-6.24c-.3-3.67.62-6.67,4.09-8.35C19.2,8.84,19.81,5.58,23,3.23a7.91,7.91,0,0,1,9.74,0c3.21,2.34,3.8,5.48,2,11.26,3.71,1.75,4.33,5,4.07,8.75a39.46,39.46,0,0,0,0,5.65c.24,2.94-.65,5.16-3.66,6.36,0,2.64,0,5.25,0,7.86,0,3.51-1.86,5.28-5.39,5.31-1.41,0-2.83,0-4.24,0a4.67,4.67,0,0,1-4.92-4.94C20.62,40.79,20.64,38.11,20.64,35.26Zm2.6-2.71c.07.11.18.22.18.34,0,2.41.07,4.83.07,7.24,0,5.52,0,5.52,5.62,5.44,2.55,0,3.22-.7,3.23-3.21,0-3.27,0-6.54,0-9.75C36,31.83,36,31.83,36,28.21c0-2.35.05-4.7,0-7-.08-3.16-2.46-4.85-5.49-3.89a8.32,8.32,0,0,1-5.13,0c-3-1-5.41.73-5.49,3.89-.06,2.34,0,4.69,0,7C19.83,31.85,19.84,31.85,23.24,32.55Zm4.51-18A5,5,0,0,0,33,9.71a5.32,5.32,0,0,0-5.16-5.16A5.32,5.32,0,0,0,22.79,9.6,5,5,0,0,0,27.75,14.58Z"/><path class="cls-1" d="M11.09,47.58a1.5,1.5,0,0,1-1.5-1.5V28.21a3.46,3.46,0,0,1,3.46-3.46h2.37a1.5,1.5,0,1,1,0,3H13.05a.46.46,0,0,0-.46.46V46.08A1.5,1.5,0,0,1,11.09,47.58Z"/></svg>