<svg id="Layer_1" data-name="Layer 1" xmlns="http://www.w3.org/2000/svg" xmlns:xlink="http://www.w3.org/1999/xlink" viewBox="0 0 50 50"><defs><style>.cls-1{stroke:#e6e6e6;stroke-width:0.25px;fill:url(#linear-gradient);}.cls-1,.cls-8,.cls-9{stroke-miterlimit:10;}.cls-2{fill:#212121;}.cls-3,.cls-8{fill:none;}.cls-4{fill:#9e9e9e;}.cls-5{fill:#f2f2f2;}.cls-6{fill:red;}.cls-7{fill:#333;}.cls-8,.cls-9{stroke:#000;}.cls-8{stroke-width:0.04px;}.cls-9{fill:#c1272d;stroke-width:0.02px;}.cls-10{fill:#fff;}</style><linearGradient id="linear-gradient" x1="24.23" y1="34.48" x2="24.23" y2="20.64" gradientUnits="userSpaceOnUse"><stop offset="0" stop-color="red"/><stop offset="0.08" stop-color="#ff0404"/><stop offset="0.16" stop-color="#ff0e0e"/><stop offset="0.23" stop-color="#ff2121"/><stop offset="0.29" stop-color="#ff3a3a"/><stop offset="0.36" stop-color="#ff5c5c"/><stop offset="0.43" stop-color="#ff8484"/><stop offset="0.49" stop-color="#ffb4b4"/><stop offset="0.55" stop-color="#ffebeb"/><stop offset="0.57" stop-color="#fff"/></linearGradient></defs><title>icono_bus</title><path class="cls-1" d="M47.42,30c0-2.3-1.39-6.17-2-7.72a1.28,1.28,0,0,0-.91-.81,25.73,25.73,0,0,0-6.7-.84H1.75a.72.72,0,0,0-.72.72v8.9A2.14,2.14,0,0,0,1.88,32c1,.78,2.71,2,3.36,2.5H7.62c0-.05,0-.1,0-.16a2.15,2.15,0,0,1,4.3,0c0,.06,0,.11,0,.16h.15c0-.05,0-.1,0-.16a2.15,2.15,0,0,1,4.3,0c0,.06,0,.11,0,.16h19.4a1.15,1.15,0,0,1,0-.19,2.15,2.15,0,0,1,4.29,0v.17c1.69,0,4.79,0,4.79,0a2.44,2.44,0,0,0,2.36-1.86l0,0a2,2,0,0,0,.12-.55Z"/><path class="cls-2" d="M5.45,19.94h8.33a.32.32,0,0,1,.32.32v.37a0,0,0,0,1,0,0H4.76a0,0,0,0,1,0,0v0A.69.69,0,0,1,5.45,19.94Z"/><path class="cls-3" d="M47.12,32.61a9.16,9.16,0,0,0-1.82-.94Z"/><path class="cls-2" d="M42.37,30.15l2.93,1.52a9.16,9.16,0,0,1,1.82.94h0a2.66,2.66,0,0,0,.12-.56l.17-2c0-2.3-1.39-6.17-2-7.72a1.29,1.29,0,0,0-.91-.82,25.73,25.73,0,0,0-6.7-.84H36.58l3.91,3.12Z"/><path class="cls-4" d="M42.37,30.15l-1.88-6.4-3.91-3.12h-.07l3.56,3.54,1.44,6.29.73.28a18.93,18.93,0,0,1,3.06.93Z"/><polygon class="cls-5" points="47.13 32.62 47.13 32.61 47.12 32.61 47.13 32.62"/><path class="cls-6" d="M50,27.34l-.2-1.18a1,1,0,0,0-.85-.84l-1-.25-1.57-.34-1.95,0-3.1-.55,1.16.91,4.26.91,2,.49.35,2.17h0A1.13,1.13,0,0,0,50,27.34Z"/><path class="cls-7" d="M39,26.5h0a.54.54,0,0,1-.69.25l-1.18-.5a9.56,9.56,0,0,0-3.66-.73H3.79a2,2,0,0,1-2-2V21.44h33.4a1.31,1.31,0,0,1,1,.43l2.6,2.84A1.59,1.59,0,0,1,39,26.5Z"/><path class="cls-7" d="M38.75,30.8H14.5a2,2,0,0,1-2-2V26.72h23a2.59,2.59,0,0,1,1.9.83l1.85,2A.73.73,0,0,1,38.75,30.8Z"/><rect class="cls-8" x="41.7" y="27.96" width="3.4" height="6.41"/><rect class="cls-9" x="30.39" y="31.72" width="3.4" height="2.64"/><rect class="cls-9" x="23.94" y="31.64" width="3.4" height="2.64"/><rect class="cls-9" x="16.86" y="31.64" width="3.4" height="2.64"/><circle class="cls-2" cx="37.87" cy="34.3" r="1.96"/><circle class="cls-10" cx="37.87" cy="34.3" r="1.1"/><circle class="cls-2" cx="14.19" cy="34.3" r="1.96"/><circle class="cls-10" cx="14.19" cy="34.3" r="1.1"/><circle class="cls-2" cx="9.76" cy="34.3" r="1.96"/><circle class="cls-10" cx="9.76" cy="34.3" r="1.1"/><path class="cls-10" d="M7.71,29.55h0a.41.41,0,0,0-.77,0h0c-.1.34.39.84.39.84S7.81,29.89,7.71,29.55Zm-.39.21a.14.14,0,0,1-.14-.13.14.14,0,0,1,.14-.14.14.14,0,0,1,.14.14A.13.13,0,0,1,7.32,29.76Zm.2,1.93a.19.19,0,0,1-.1.17c-.59.34-1.37.77-1.92,1.11a.18.18,0,0,1-.2,0L3.38,31.86a.2.2,0,0,1-.08-.17V29.41a.19.19,0,0,1,.1-.17l1.16-.67c.64-.38,1.09,1.07.43,1.48H5l-.19.09h0s.21,0,.21.32v.57c0,.36.13.57.41.57s.39-.2.39-.55v-.63c0-.15,0-.26.18-.19l.29.16c.07,0,.12,0,.14-.06s0-.11,0-.15A.93.93,0,0,0,6,29.82H6a.08.08,0,0,1,0-.07v-.33a.05.05,0,0,1,0-.05H6c.35.21.49-.08.36-.15l-.49-.29a0,0,0,0,0-.06,0v.92a.13.13,0,0,1-.19.1l-.11-.06a.28.28,0,0,1-.13-.23V28.42a.2.2,0,0,1,.3-.17l.88.5c.2.11.28.26.24.69s-.44.26-.44.26a1,1,0,0,1,.43.46,1,1,0,0,1,0,.36c0,.25-.3.44-.44.36a1.67,1.67,0,0,0-.23-.11s0,0,0,0v.52A.75.75,0,0,1,5.4,32a.79.79,0,0,1-.74-.7v-.72a.2.2,0,0,0-.14-.19l-.25-.07h0a.21.21,0,0,1-.14-.2.18.18,0,0,1,.1-.16l.62-.37c.19-.11,0-.63-.29-.5s-.59.34-.77.45a.19.19,0,0,0-.09.16v1.78a.19.19,0,0,0,.09.17l1.51.86a.17.17,0,0,0,.19,0L7,31.68a.21.21,0,0,0,.1-.17v-1h0a0,0,0,0,1,.06,0l.16.15h0l.15-.15s0,0,0,0v1.19Z"/></svg>