<svg id="Layer_1" data-name="Layer 1" xmlns="http://www.w3.org/2000/svg" viewBox="0 0 100 100"><defs><style>.cls-1{fill:gray;}</style></defs><title>icon_tipo_asiento</title><path class="cls-1" d="M95,34.23A2.39,2.39,0,0,0,94.35,33c-.91-1.05-2.62-3-3.13-3.52-4.93-5.57-5.91,2-10.08,4-9.93,4.66-31.39,14.55-31.39,14.55a6.9,6.9,0,0,1,3.76,4c1.64,3.89-.49,5-.24,4.84,1-.49,11.83-5.94,21.65-11.17C81.06,42.34,86,39.7,87.2,39.05a2.27,2.27,0,0,1,.62-.21l3.76-.62A4.67,4.67,0,0,0,93,38,3.58,3.58,0,0,0,95,34.23Z"/><path class="cls-1" d="M50,52.17a3,3,0,0,1,2.4,1.19,8.22,8.22,0,0,0-3.66-4.61L48,52.17Z"/><path class="cls-1" d="M23.35,55.59h2.83a2.21,2.21,0,0,1,0-.37,3.06,3.06,0,0,1,3.05-3h15l1-4.49c-.17,0-.33,0-.5,0l-17.43-3c-3.92,0-4.77,6.22-4.77,10.14A.83.83,0,0,0,23.35,55.59Z"/><path class="cls-1" d="M49,69.26H43.7L40.54,57.73H50a2.51,2.51,0,0,0,2.48-2.14c0-.12,0-.24,0-.37A2.51,2.51,0,0,0,50,52.71H47.3l1-4.22,1.39-5.91a1.5,1.5,0,0,0,.28-.83,1.62,1.62,0,0,0-1.62-1.62h-16a1.62,1.62,0,0,0-.54,3.14A1.25,1.25,0,0,1,33,42.49h8.25a1.29,1.29,0,0,1,1.21.88h4.36l-1,4.36-1.17,5H29.19a2.52,2.52,0,0,0-2.51,2.51,2.21,2.21,0,0,0,0,.37c0,.11.05.22.08.33L19,61.9H5v2.8H19.32l9.07-7.11a2.4,2.4,0,0,0,.8.14H36l3.15,11.53h-4A2.77,2.77,0,0,0,32.47,72v.56h20.1A3.6,3.6,0,0,0,49,69.26ZM32.05,56.35a1.17,1.17,0,0,1-1-.64H28.32a.55.55,0,1,1,0-1.1H31a1.18,1.18,0,1,1,1,1.74Z"/></svg>