<svg id="Layer_1" data-name="Layer 1" xmlns="http://www.w3.org/2000/svg" viewBox="0 0 50 50"><defs><style>.cls-1{fill:red;}.cls-2{fill:#fff;}</style></defs><title>icono_direccion</title><polygon class="cls-1" points="45.63 13.92 25.39 2.21 5.15 13.92 5.15 36.28 25.39 48 45.63 36.28 45.63 36.28 45.63 36.28 45.63 13.92"/><path class="cls-2" d="M33.92,22.66H12a.29.29,0,0,1-.3-.3V19a.3.3,0,0,1,.3-.3H33.92a.3.3,0,0,0,.31-.3V16.44a.3.3,0,0,1,.51-.21L39,20.45a.3.3,0,0,1,0,.43L34.74,25.1a.3.3,0,0,1-.51-.22V23A.31.31,0,0,0,33.92,22.66Z"/><path class="cls-2" d="M15.85,28.66h21.9a.3.3,0,0,1,.3.3v3.4a.29.29,0,0,1-.3.3H15.85a.31.31,0,0,0-.3.3v1.92a.3.3,0,0,1-.51.22l-4.23-4.22a.32.32,0,0,1,0-.43L15,26.23a.3.3,0,0,1,.51.21v1.92A.3.3,0,0,0,15.85,28.66Z"/></svg>