<svg id="Layer_1" data-name="Layer 1" xmlns="http://www.w3.org/2000/svg" viewBox="0 0 100 100"><defs><style>.cls-1{fill:#b3b3b3;}</style></defs><title>icon-rubi-serv-corriente</title><path class="cls-1" d="M65.24,54.12H52.76V47H65.24a2.19,2.19,0,0,0,0-4.37H52.76V35.77H42.9a15,15,0,0,0-13,8.34,3.43,3.43,0,0,0-.56-.06,4.09,4.09,0,0,0-4.07,4.07v.57H5v4H25.3v.48a4.08,4.08,0,0,0,4.07,4.07,4.75,4.75,0,0,0,.53,0,15,15,0,0,0,13,8.42v0h9.86V58.49H65.24a2.19,2.19,0,0,0,0-4.37Z"/><polygon class="cls-1" points="89.2 17.27 71.92 51.75 80.97 51.75 74.06 82.73 95 45.98 85.89 45.88 89.2 17.27"/></svg>