<svg id="Layer_1" data-name="Layer 1" xmlns="http://www.w3.org/2000/svg" viewBox="0 0 100 100"><defs><style>.cls-1{fill:#b3b3b3;}</style></defs><title>icon-rubi-serv-asafata</title><path class="cls-1" d="M90.64,79.94C86.32,75.3,75.75,73.79,72,72.17a24,24,0,0,1-6.8-4.9s-3.88,7.28-10.9,8.09c-5,.57-10.79-1.41-10.79-1.41s-1.62,0-.16,1.78,2.1,3.08,2.1,6.8.33,8.75.33,8.75-6-3.73-7.94-8.58.65-10.37.65-10.37S35.19,71.15,35,72c-3,10.71-8.26,7.88-8.26,7.88s3.56-1.78,2.27-9.34a24.77,24.77,0,0,1-10.9,4.75c-5.14.69-10.36,4-11.82,7.45S5,95,5,95H95S94.68,84.28,90.64,79.94Zm-13.38,4v-.07H72.08v.48h4.55l-1,.66H71.43v.48H74.9l-1,.66H71.15l.77.43v0h1.26l-1.26.83v2L69.27,91l-2.65-1.51v-2l-1.26-.83h1.26v0l.77-.43H64.63l-1-.66H67.1V85H62.9l-1-.66h4.54v-.48H61.27v.06L60,83.08h8v1.61h2.54V83.08h8Z"/><path class="cls-1" d="M69.8,57.15c-5-4.55,4.11-29.78-6.36-41.7-4.69-5.35-9.76-3.15-9.76-3.15s.63-7-12-7.3c-9.51-.18-18.74,6.82-21.5,17.38-3.73,14.3,4.82,32.38,3.08,37.2s-5.65,5.28-5.65,5.28a19.14,19.14,0,0,0,6.84,1.35,10.63,10.63,0,0,0,9.8-6.82s3.41,6.2,11.94,5.46A15.74,15.74,0,0,0,57,58.6c6.64,6,15.43,2.75,17.4,1.81C73.8,60.33,72.56,59.68,69.8,57.15ZM61.51,45.33c-2.63,12.44-12.93,17.35-16,17.52-16.75.93-19.18-28.47-19.18-28.47a19.2,19.2,0,0,0,16.77-1.93c8.69-5.41,11.14-7.74,11.14-7.74s-.22,1.91-3.41,4.84-3.7,2.95-3.7,2.95a13.2,13.2,0,0,0,7.62-2.75c3.73-2.85,3.77-4.62,3.77-4.62S64.14,32.89,61.51,45.33Z"/><path class="cls-1" d="M74.37,60.41c.44.06.46-.24.46-.24A4.73,4.73,0,0,1,74.37,60.41Z"/></svg>