<svg id="Layer_1" data-name="Layer 1" xmlns="http://www.w3.org/2000/svg" viewBox="0 0 100 100"><defs><style>.cls-1{fill:#b3b3b3;}</style></defs><title>icon-rubi-serv-equipaje</title><path class="cls-1" d="M76.33,33.24c0-5.28-3.06-8.36-8.33-8.36H59.8c0-.65,0-12.62.07-18.11,0-1-.35-1.7-1.28-1.71q-7-.1-14.06,0c-1,0-1.34.78-1.33,1.83.07,5.49,0,17.44,0,18H34.55a7.6,7.6,0,0,0-7.8,7.81v.73a3.45,3.45,0,0,0-.74,6.7,3.16,3.16,0,0,0,.73.15c0,8.39,0,21.88,0,31.69a3.45,3.45,0,0,0-.05,6.55l.06,0c0,3.14,0,5.22,0,5.52a7.58,7.58,0,0,0,6.28,7.29,7,7,0,0,0,1,.07,3.45,3.45,0,0,0,6.71,1.24A3.29,3.29,0,0,0,41,91.54H43.2a1.34,1.34,0,0,1,.39-.07q7.94,0,15.89,0a1,1,0,0,1,.34.06h3.91a3.45,3.45,0,0,0,6.72,1.11,3.4,3.4,0,0,0,.15-1.44C74,90.27,76.38,87,76.35,83,76.19,66.38,76.31,49.81,76.33,33.24ZM45.51,8.12h12.2l-.08,17.07H45.51ZM35.18,45.19h32.7a1.25,1.25,0,0,1,0,2.5H35.18a1.25,1.25,0,0,1,0-2.5Zm0,9.6h32.7a1.25,1.25,0,0,1,0,2.5H35.18a1.25,1.25,0,0,1,0-2.5Zm0,9.6h32.7a1.25,1.25,0,0,1,0,2.5H35.18a1.25,1.25,0,1,1,0-2.5ZM68,76.49H35.26a1.25,1.25,0,0,1,0-2.5H68a1.25,1.25,0,0,1,0,2.5Zm.68-38.4H35.94a1.25,1.25,0,1,1,0-2.5h32.7a1.25,1.25,0,0,1,0,2.5Z"/></svg>