<svg id="Layer_1" data-name="Layer 1" xmlns="http://www.w3.org/2000/svg" viewBox="0 0 100 100"><defs><style>.cls-1{fill:#b3b3b3;}</style></defs><title>icon-rubi-serv-snaks</title><polygon class="cls-1" points="48.75 18.16 48.75 13.83 51.3 10.74 53.64 13.83 55.66 10.74 58.02 13.83 60.5 10.74 63.33 13.83 65.9 10.74 68.79 13.83 71.31 10.74 73.94 13.83 76.64 10.74 79.19 13.83 81.2 10.74 83.89 13.83 86.66 10.74 89.34 13.83 92.41 10.74 92.41 18.16 48.75 18.16"/><path class="cls-1" d="M7.3,31.41H38.86a3.32,3.32,0,0,1,3.32,3.32v.56a0,0,0,0,1,0,0H5a0,0,0,0,1,0,0V33.71a2.3,2.3,0,0,1,2.3-2.3Z"/><path class="cls-1" d="M21.65,29.33,27.17,19a1.19,1.19,0,0,1-.33-1.59c.54-.85,1.49-.08,1.49-.08s-.7-.86-.1-1.5a1.15,1.15,0,0,1,1.64,0s-.24-1,.49-1.27,1.34.65,1.34.65.05-1,.8-1.14,1.33,1,1.33,1l11.62-2.5,0,3.18-14,3.12L25.67,29.33Z"/><path class="cls-1" d="M95,80.68,92.7,21.87l-44.54-.22-2,60.12a6.79,6.79,0,0,0,6.75,7.49H87.1A7.9,7.9,0,0,0,95,80.68ZM83.91,55.52,70.58,63.14,57.25,55.52V41l13.33-7.62L83.91,41Z"/><path class="cls-1" d="M6.67,39.15l6.66,50.09,21.24,0L40.15,39.2ZM32.1,59.53l-8.69,5-8.69-5V50.05l8.69-5,8.69,5Z"/></svg>