<svg id="Layer_1" data-name="Layer 1" xmlns="http://www.w3.org/2000/svg" viewBox="0 0 50 50"><defs><style>.cls-1{fill:#eee;}</style></defs><title>icono_app_claro</title><path class="cls-1" d="M39.74,14.25l-.09-.3C35-.48,14.74-.71,9.86,13.64c-.07.2-.14.41-.2.61C5.65,27.43,24.77,46.8,24.77,46.8S43.73,27.4,39.74,14.25Zm-8.46,8.36v2.73L27.84,27c0-1,0-2.29,0-4.4h0l-3.42-1h0A1.55,1.55,0,0,1,23.3,20a1.62,1.62,0,0,1,.81-1.29l5-2.95c1.49-.89-.19-5.14-2.41-4-1.71.86-4.74,2.71-6.14,3.57a1.56,1.56,0,0,0-.74,1.34l0,14.24-3.3,1.6s0-.1,0-.15c0-3.06,0-13,0-18.33a1.65,1.65,0,0,1,.82-1.43c2.89-1.68,6.13-3.54,9.33-5.42,5.17-3,8.84,8.63,3.5,12l-.15.08L28.55,20A2.54,2.54,0,0,1,31.28,22.61Z"/></svg>