<svg id="Layer_1" data-name="Layer 1" xmlns="http://www.w3.org/2000/svg" viewBox="0 0 100 100"><defs><style>.cls-1{fill:#b3b3b3;}</style></defs><title>icon-rubi-serv-wifi</title><path class="cls-1" d="M73.83,67.49H26.66A7.63,7.63,0,0,0,19,75V87.46A7.63,7.63,0,0,0,26.66,95H73.83a7.64,7.64,0,0,0,7.69-7.54V75A7.64,7.64,0,0,0,73.83,67.49Zm-33,21.69h-4l-1.37-6.83c-.31-1.6-.58-3.08-.77-4.9h0c-.28,1.79-.55,3.3-.93,4.9l-1.54,6.83h-4L24.38,73.31H28.3l1.22,6.55c.37,1.88.7,3.93,1,5.53h0c.27-1.72.65-3.63,1.06-5.58L33,73.31h3.89L38.15,80c.36,1.86.62,3.55.86,5.32h.05c.24-1.77.6-3.63.94-5.51l1.32-6.5H45Zm9.76,0H46.94V73.31h3.68Zm4.43-3.59H53l2.72-8.69h2.05Zm14.62-9.34H63.45v3.63h5.81V82.8H63.45v6.38H59.77V73.31h9.9Zm6.44,12.93H72.43V73.31h3.68Z"/><path class="cls-1" d="M14.57,31.25a2.73,2.73,0,0,0-.89,2,2.79,2.79,0,0,0,.84,2.05l0,0a2.88,2.88,0,0,0,4,0c17.62-16.08,45.34-16,63.1.3a2.93,2.93,0,0,0,2,.77,2.83,2.83,0,0,0,2-.81,2.79,2.79,0,0,0,.84-2.05,2.73,2.73,0,0,0-.89-2C65.54,13.28,34.38,13.14,14.57,31.25Z"/><path class="cls-1" d="M76.21,45.72a2.76,2.76,0,0,0,1.94-.79,2.72,2.72,0,0,0,.81-2A2.6,2.6,0,0,0,78.09,41c-15.77-14.24-40.38-14.34-56-.25a2.65,2.65,0,0,0-.88,1.92,2.72,2.72,0,0,0,.82,2l0,0a2.81,2.81,0,0,0,3.84.06C39.39,32.6,60.67,32.7,74.31,45A2.86,2.86,0,0,0,76.21,45.72Z"/><path class="cls-1" d="M30.1,50.43a2.47,2.47,0,0,0-.82,1.8A2.52,2.52,0,0,0,30,54.09h0a2.61,2.61,0,0,0,3.58.06,25.68,25.68,0,0,1,34,.16,2.62,2.62,0,0,0,1.77.68,2.56,2.56,0,0,0,1.81-.73A2.52,2.52,0,0,0,72,52.41a2.46,2.46,0,0,0-.82-1.8A31,31,0,0,0,30.1,50.43Z"/><path class="cls-1" d="M94.08,22.33C69.26-.62,30.54-.8,5.92,21.94A2.83,2.83,0,0,0,5,24a3,3,0,0,0,.87,2.12l.79-.78-.76.8a3,3,0,0,0,4.12,0C32.35,5.57,67.48,5.73,90,26.55a3,3,0,0,0,2.06.8,2.92,2.92,0,0,0,2.94-3A2.84,2.84,0,0,0,94.08,22.33Z"/></svg>