<svg id="Layer_1" data-name="Layer 1" xmlns="http://www.w3.org/2000/svg" viewBox="0 0 50 50"><defs><style>.cls-1{fill:#aeb6be;}</style></defs><title>iconos_boletos</title><path class="cls-1" d="M23.72,35.32C20.78,34.14,19.8,32,20,29.14a42.06,42.06,0,0,0,0-6.25c-.3-3.66.62-6.66,4.08-8.34-1.83-5.65-1.22-8.91,2-11.26a7.91,7.91,0,0,1,9.74,0c3.21,2.34,3.8,5.48,2,11.26,3.7,1.75,4.33,5,4.07,8.75a38.06,38.06,0,0,0,0,5.65c.24,2.93-.65,5.16-3.66,6.35,0,2.65,0,5.26,0,7.87,0,3.51-1.86,5.28-5.39,5.31-1.41,0-2.83,0-4.24,0a4.66,4.66,0,0,1-4.92-4.94C23.7,40.85,23.72,38.17,23.72,35.32Zm2.6-2.72c.06.12.18.23.18.35,0,2.41.07,4.83.07,7.24,0,5.52,0,5.52,5.62,5.44,2.55,0,3.22-.7,3.23-3.21,0-3.27,0-6.54,0-9.76,3.64-.77,3.64-.77,3.64-4.39,0-2.35,0-4.7,0-7-.08-3.15-2.46-4.84-5.49-3.88a8.32,8.32,0,0,1-5.13,0c-3-.95-5.41.73-5.49,3.88-.07,2.35,0,4.7,0,7.05C22.91,31.91,22.91,31.91,26.32,32.6Zm4.51-18A5,5,0,0,0,36.1,9.77,5.33,5.33,0,0,0,30.94,4.6a5.33,5.33,0,0,0-5.07,5.05A5,5,0,0,0,30.83,14.64Z"/><path class="cls-1" d="M14.11,38.2c2.1,0,3.8-.29,3.81-.64L18.28,32c0-.21-.64-.39-1.63-.52a3.32,3.32,0,0,0-.4-.77h0a3.06,3.06,0,0,0-2-1.12,3,3,0,0,0-1.11.19,3,3,0,0,0-.61.38l-.19.18a3,3,0,0,0-.58.78.76.76,0,0,1-.55.43l-.59.11a.82.82,0,0,0-.61.85l.31,5C10.31,37.9,12,38.19,14.11,38.2Zm-.37-7.77h0a2.21,2.21,0,0,1,.75,0,1.38,1.38,0,0,1,.87.48h0s0,0,0,0a2.44,2.44,0,0,1,.35.53c-.49,0-1-.05-1.59-.06s-1.09,0-1.58.05A2,2,0,0,1,13.74,30.43Z"/><path class="cls-1" d="M21.19,42.22c-.09-4.33-.44-7.16-1.57-8.91L19.31,38A1.18,1.18,0,0,1,18.52,39a11.32,11.32,0,0,1-3.59.54v.47H13.26v-.47c-1.49,0-3.39-.24-4-.87l-.31-.37,0-.35-.29-4.7C7.49,35,7.13,37.86,7,42.18l-.06,5c0,.44,0,.89,0,1.36l14.26,0c0-.47,0-.91,0-1.35ZM20,46A1.94,1.94,0,0,1,18.09,48H10.33a2.18,2.18,0,0,1-2.17-2.19V44.1c0-1.08.88-2,2.23-2.67a9.16,9.16,0,0,1,3.72-.74c3.28,0,5.93,1.54,5.92,3.44Z"/><path class="cls-1" d="M14.09,42.09a7.1,7.1,0,0,0-2.85.56c-.91.42-1.45,1-1.45,1.57v1.72a.79.79,0,0,0,.79.79h7a.79.79,0,0,0,.79-.79V44.24a1.35,1.35,0,0,0-.43-.91A5.65,5.65,0,0,0,14.09,42.09Z"/></svg>