<svg id="Layer_1" data-name="Layer 1" xmlns="http://www.w3.org/2000/svg" viewBox="0 0 100 100"><defs><style>.cls-1{fill:#b3b3b3;}</style></defs><title>icon-rubi-serv-clima</title><path class="cls-1" d="M62.85,23.82a2.72,2.72,0,0,1-1.47,1.68c-2.05,1.15-4.08,2.34-6.12,3.52l-.4.24,1,.28,4.58,1.23A2,2,0,0,1,62,32.68a1.93,1.93,0,0,1-1.45,1.91,2.48,2.48,0,0,1-1.15,0c-3-.79-6.1-1.62-9.15-2.43a.69.69,0,0,0-.47.05Q43.84,35.6,37.94,39l-.21.13.33.21,11.38,6.57a.77.77,0,0,0,.63.09l9.08-2.44a2,2,0,1,1,1,3.85l-5.06,1.35-.49.14.4.24,6.49,3.74a2,2,0,1,1-2,3.48l-4.89-2.82-2-1.18.41,1.56c.35,1.33.71,2.66,1.06,4a2,2,0,1,1-3.85,1c-.81-3-1.62-6-2.42-9.05a.73.73,0,0,0-.34-.5L36.18,42.87l-.44-.24V43q0,6.47,0,12.92a.73.73,0,0,0,.25.58l6.66,6.66A2,2,0,1,1,39.82,66c-1.26-1.25-2.51-2.51-3.76-3.76l-.32-.3v8a2,2,0,1,1-4,0c0-2.52,0-5,0-7.57v-.49l-.3.27c-1.26,1.26-2.52,2.53-3.78,3.78a2,2,0,0,1-2.93-2.69c.47-.5,1-1,1.44-1.46q2.68-2.67,5.35-5.35a.78.78,0,0,0,.21-.46q0-6.59,0-13.19s0-.11,0-.21l-.28.14L21,48.83a.7.7,0,0,0-.29.4Q19.38,54,18.11,58.8a2,2,0,0,1-3.86.23,2.08,2.08,0,0,1,0-1.26c.51-1.89,1-3.79,1.52-5.68,0-.08,0-.17.06-.3l-3.27,1.88c-1.44.83-2.87,1.67-4.31,2.49A2,2,0,1,1,6.3,52.69l5.12-3,1.84-1.06c-.81-.22-1.55-.43-2.29-.62-1-.26-1.91-.5-2.86-.77a2,2,0,0,1-1.49-2.09,2,2,0,0,1,1.84-1.81,2.19,2.19,0,0,1,.76.08l8.66,2.31a.72.72,0,0,0,.44,0l11.27-6.5.1-.09L29.43,39,18,32.38a.77.77,0,0,0-.66-.08c-3,.81-6,1.6-8.95,2.4a2,2,0,0,1-2.56-1.13,2,2,0,0,1,1.38-2.68l4.28-1.15,1.28-.35-.27-.18L6.06,25.48A2,2,0,0,1,5,23.6a1.88,1.88,0,0,1,1.19-1.7,2,2,0,0,1,1.9.15l6.37,3.68.35.19c-.2-.75-.38-1.44-.57-2.14-.3-1.14-.62-2.29-.91-3.44a2,2,0,1,1,3.84-1q1.21,4.52,2.42,9.05A.87.87,0,0,0,20,29l11.33,6.53.38.22c0-.16,0-.26,0-.37q0-6.7,0-13.42a.74.74,0,0,0-.26-.58l-6.66-6.66a2,2,0,0,1-.55-2,1.89,1.89,0,0,1,1.46-1.39,2,2,0,0,1,1.94.59l3.73,3.74a3.3,3.3,0,0,1,.22.3l.11-.06V8.51a2.11,2.11,0,0,1,1.62-2.45h.74a2.23,2.23,0,0,1,1.63,2.49c0,2.32,0,4.64,0,7v.42l.32-.31c1.26-1.26,2.51-2.52,3.78-3.77a2,2,0,0,1,3.32.7,2,2,0,0,1-.54,2.15L36,21.36a.76.76,0,0,0-.22.49q0,6.76,0,13.55c0,.08,0,.16,0,.26l.18-.09q5.91-3.41,11.81-6.83A.75.75,0,0,0,48,28.3q1.23-4.53,2.44-9.08a2,2,0,1,1,3.85,1c-.33,1.25-.67,2.5-1,3.76-.16.57-.31,1.14-.48,1.78l1.84-1.06c1.71-1,3.41-2,5.13-2.95a2,2,0,0,1,3,1.22s0,.09.07.14Z"/><path class="cls-1" d="M90.75,69.8a1.45,1.45,0,0,1-.44-1.15V34.74c0-2.3,0-4.6,0-6.89A9.26,9.26,0,0,0,83.6,19.3c-.52-.15-1-.27-1.56-.41H79.88c-.19.06-.38.12-.57.16a9.19,9.19,0,0,0-5.09,2.72,9.43,9.43,0,0,0-2.62,6.79q0,20,0,40.09a1.28,1.28,0,0,1-.45,1.15,8,8,0,0,0-1,1.1A14,14,0,0,0,68.87,87a13.78,13.78,0,0,0,8.68,6.48c.65.17,1.31.3,2,.45H82.4a3.92,3.92,0,0,1,.56-.16,14,14,0,0,0,7.68-3.73,13.22,13.22,0,0,0,4.08-7.36A13.8,13.8,0,0,0,90.75,69.8ZM89.29,84.17a9.36,9.36,0,1,1-14-11.71,2.28,2.28,0,0,0,1-2.15c0-6.87,0-13.74,0-20.61s0-14,0-21a5,5,0,0,1,2-4.27,4.74,4.74,0,0,1,6.7,1.34,5.94,5.94,0,0,1,.71,3.05q0,21.09,0,42.18a1.17,1.17,0,0,0,.58,1.11A9.28,9.28,0,0,1,89.29,84.17Z"/><path class="cls-1" d="M83.74,73.45a.7.7,0,0,1-.49-.77c0-3.89,0-7.79,0-11.69V49.43a2.22,2.22,0,0,0-1.37-2.2,2.36,2.36,0,0,0-2.64.57,2.5,2.5,0,0,0-.6,1.89c0,7.65,0,15.3,0,23a.82.82,0,0,1-.55.85,9.2,9.2,0,0,0-1.89,1.24,7,7,0,1,0,7.52-1.28Z"/></svg>