<svg id="Layer_1" data-name="Layer 1" xmlns="http://www.w3.org/2000/svg" viewBox="0 0 50 50"><defs><style>.cls-1{fill:red;}.cls-2{fill:#fff;}</style></defs><title>iconos__boletos</title><path class="cls-1" d="M39.74,14.25l-.09-.3C35-.48,14.74-.71,9.86,13.64c-.07.2-.14.41-.2.61C5.65,27.43,24.77,46.8,24.77,46.8S43.73,27.4,39.74,14.25Z"/><path class="cls-2" d="M19.26,31.31c-.07-.24-.15-.46-.23-.69-.33-.9-.7-1.79-1.08-2.67a26.59,26.59,0,0,0-1.17-2.4,8.24,8.24,0,0,0-1-1.38A3.94,3.94,0,0,0,14.31,23L14.15,23s0,0,0,0a7.6,7.6,0,0,1,1.54-1.28,3.47,3.47,0,0,1,1.21-.49,1.54,1.54,0,0,1,.77,0,1.75,1.75,0,0,1,.64.39,4.72,4.72,0,0,1,.85,1,16.14,16.14,0,0,1,1.12,2.14c.13.3.26.59.4.89a.21.21,0,0,0,0-.06,43.15,43.15,0,0,1,2.78-4,48.67,48.67,0,0,1,3.17-3.7,51.9,51.9,0,0,1,4.64-4.38,35,35,0,0,1,4.23-3l.69-.41.06,0,.56.8-.49.38A32.44,32.44,0,0,0,33.26,14c-1.26,1.29-2.44,2.65-3.58,4S27.37,21,26.31,22.56a49.64,49.64,0,0,0-2.86,4.6c-.32.58-.62,1.16-.91,1.76a.18.18,0,0,1-.07.08c-.74.49-1.48,1-2.19,1.5C19.93,30.76,19.59,31,19.26,31.31Z"/></svg>