<svg id="Layer_1" data-name="Layer 1" xmlns="http://www.w3.org/2000/svg" xmlns:xlink="http://www.w3.org/1999/xlink" viewBox="0 0 237.11 91.38"><defs><style>.cls-1{fill:url(#radial-gradient);}.cls-2{fill:#fff;}.cls-3{fill:#999;}</style><radialGradient id="radial-gradient" cx="51.64" cy="51.19" r="51.69" gradientTransform="matrix(0.57, -0.82, 0.82, 0.58, -24.55, 59.92)" gradientUnits="userSpaceOnUse"><stop offset="0.25" stop-color="#ec1c24"/><stop offset="1" stop-color="#be1e2d"/></radialGradient></defs><title>logo_rubi</title><polygon class="cls-1" points="80.76 23.37 40.38 0 0 23.37 0 68 40.38 91.38 80.76 68 80.76 68 80.76 68 80.76 23.37"/><path class="cls-2" d="M78.56,34a.76.76,0,0,0,0-.11A6.05,6.05,0,0,0,67,33.74c0,.08,0,.15-.07.23-1.55,5.09,5.83,12.57,5.83,12.57S80.1,39.05,78.56,34Zm-5.81,3.19a2.06,2.06,0,1,1,2.06-2A2.05,2.05,0,0,1,72.75,37.16Zm3,28.89a2.9,2.9,0,0,1-1.46,2.55c-8.88,5.1-20.64,11.56-28.82,16.66a2.9,2.9,0,0,1-3,0c-9-5.35-24.07-14-28.8-16.71A2.87,2.87,0,0,1,12.38,66c0-5.68.08-24.21,0-34a3,3,0,0,1,1.52-2.66c5.38-3.11,11.39-6.57,17.34-10.07,9.61-5.64,16.42,16.05,6.49,22.3l-.27.14L34.68,43v0c.32,0,3.08,0,3.08,4.9,0,4.25,0,7.83,0,8.5,0,5.36,2,8.51,6.21,8.51s5.84-3,5.78-8.23c0-2,0-9.12,0-9.12v-.3c0-2.19.82-3.9,2.73-2.85l4.38,2.33c1,.65,1.76-.34,2.07-.86a2.55,2.55,0,0,0-.22-2.23A13.61,13.61,0,0,0,53.45,38l-.29-.15a1.2,1.2,0,0,1-.71-1.1V31.81a.67.67,0,0,1,.85-.64h0c5.12,3.11,7.28-1.28,5.32-2.36S53,25.58,51.3,24.58a.61.61,0,0,0-.93.55s0,8.6-.06,13.74a1.83,1.83,0,0,1-2.78,1.56l-1.64-1A4,4,0,0,1,44,36V17a3,3,0,0,1,4.45-2.56c5,2.89,12.18,7.08,13.2,7.63,3,1.64,4.14,3.8,3.55,10.34-.41,4.49-6.56,3.86-6.55,3.87.53.28,4.84,2.63,6.48,6.8.58,1.46.29,3.31.29,5.52,0,3.72-4.49,6.56-6.59,5.28-.55-.34-2.38-1.1-3.44-1.54a.57.57,0,0,0-.79.53V60.7c0,4.25-4.24,10.62-10.6,10.62S32.86,65,32.86,60.79V50a3,3,0,0,0-2.13-2.86L27,46h0a2.92,2.92,0,0,1-2.12-3,3,3,0,0,1,1.5-2.39c3.1-1.82,7.49-4.38,9.33-5.48,2.76-1.65-.36-9.56-4.47-7.49-3.19,1.59-8.82,5-11.41,6.63a2.92,2.92,0,0,0-1.38,2.49l.07,26.72A2.89,2.89,0,0,0,20,66.05L42.52,79a2.89,2.89,0,0,0,2.9,0L68,65.85a2.93,2.93,0,0,0,1.45-2.53V48.46h0a.51.51,0,0,1,.86-.38l2.48,2.2h0L75,48a.39.39,0,0,1,.65.2,3.41,3.41,0,0,1,0,.55C75.74,52.23,75.7,60.36,75.75,66.05Z" transform="translate(-4.46 -4.15)"/><path class="cls-3" d="M115.17,17.91a4.37,4.37,0,0,1-.19,1.26,4.16,4.16,0,0,1-.5,1.09,4.43,4.43,0,0,1-.77.91,4.19,4.19,0,0,1-1,.66l2.47,3.83H112.7l-2.19-3.4h-1.42l.85-2.07h.9a2.18,2.18,0,0,0,1.6-.67,2.35,2.35,0,0,0,.48-.74,2.17,2.17,0,0,0,0-1.73,2.26,2.26,0,0,0-2.08-1.39h-2.45v10h-2.07V13.59h4.52a4.17,4.17,0,0,1,1.68.34,4.41,4.41,0,0,1,2.3,2.3A4.18,4.18,0,0,1,115.17,17.91Z" transform="translate(-4.46 -4.15)"/><path class="cls-3" d="M118.36,15.66v2.93h4.5l.52,2.07h-5v2.93h6v2.07h-8.12V13.59h8.12v2.07Z" transform="translate(-4.46 -4.15)"/><path class="cls-3" d="M132.88,14.06a6.35,6.35,0,0,1,1.92,1.29,5.94,5.94,0,0,1,1.29,1.93,5.76,5.76,0,0,1,.48,2.34,5.85,5.85,0,0,1-.48,2.35,6,6,0,0,1-3.21,3.21,5.85,5.85,0,0,1-2.35.48h-2.14l.85-2.07h1.29a3.92,3.92,0,0,0,1.52-.3,4.11,4.11,0,0,0,1.29-.86,4.06,4.06,0,0,0,.86-1.28,4,4,0,0,0,0-3A3.89,3.89,0,0,0,132.05,16a3.92,3.92,0,0,0-1.52-.3H127.6v10h-2.07V13.59h5A5.84,5.84,0,0,1,132.88,14.06Z" transform="translate(-4.46 -4.15)"/><path class="cls-3" d="M116.37,34.28v7.25a5,5,0,0,1-.39,2,5.15,5.15,0,0,1-1.09,1.61,5,5,0,0,1-3.59,1.49,5.06,5.06,0,0,1-4.67-3.1,4.82,4.82,0,0,1-.4-2V34.28h2.07v7.25a3.12,3.12,0,0,0,.22,1.14,2.92,2.92,0,0,0,.66,1,3.12,3.12,0,0,0,1,.65,3,3,0,0,0,1.15.23,3,3,0,0,0,2.78-1.86,2.93,2.93,0,0,0,.22-1.14V34.28Z" transform="translate(-4.46 -4.15)"/><path class="cls-3" d="M126.65,34.26V46.34h-2.24l-4.85-8.26v8.26h-2.07V34.26h2.25l4.84,8.27V34.26Z" transform="translate(-4.46 -4.15)"/><path class="cls-3" d="M130,46.35H128V34.3H130Z" transform="translate(-4.46 -4.15)"/><path class="cls-3" d="M133.38,36.35v2.93h4.5l.52,2.07h-5v5h-2.07V34.28h8.12v2.07Z" transform="translate(-4.46 -4.15)"/><path class="cls-3" d="M142.36,46.35h-2.07V34.3h2.07Z" transform="translate(-4.46 -4.15)"/><path class="cls-3" d="M154.13,44.73a6.51,6.51,0,0,1-2,1.36,6.35,6.35,0,0,1-4.89,0,6.35,6.35,0,0,1-2-1.35,6.44,6.44,0,0,1-1.34-2,6.32,6.32,0,0,1,0-4.88,6.56,6.56,0,0,1,1.34-2,6.35,6.35,0,0,1,2-1.35,6.35,6.35,0,0,1,4.89,0,6.51,6.51,0,0,1,2,1.36l-1.47,1.46a4.42,4.42,0,0,0-1.36-.92,4.22,4.22,0,0,0-1.62-.32,4.17,4.17,0,0,0-1.61.32,4.42,4.42,0,0,0-1.36.92,4.29,4.29,0,0,0-.92,1.37,3.94,3.94,0,0,0-.32,1.6,4,4,0,0,0,.32,1.61,4.22,4.22,0,0,0,2.28,2.29,4.16,4.16,0,0,0,1.61.31,4.13,4.13,0,0,0,3-1.22Z" transform="translate(-4.46 -4.15)"/><path class="cls-3" d="M167.65,46.35h-2.28l-.93-2.06-.93-2.07-2.45-5.42-2.45,5.42h3.14l.93,2.07h-5l-.93,2.06h-2.28l5.45-12.07h2.28Z" transform="translate(-4.46 -4.15)"/><path class="cls-3" d="M175.77,34.76a5.8,5.8,0,0,1,1.92,1.29A6.21,6.21,0,0,1,179,38a6,6,0,0,1,.47,2.35,5.93,5.93,0,0,1-.47,2.34,6,6,0,0,1-3.22,3.22,5.79,5.79,0,0,1-2.34.47h-2.14l.84-2.06h1.3a3.92,3.92,0,0,0,1.51-.31,4,4,0,0,0,1.3-.85,4.25,4.25,0,0,0,.85-1.29,3.85,3.85,0,0,0,.3-1.52,3.92,3.92,0,0,0-.3-1.52,4.25,4.25,0,0,0-.85-1.29,4,4,0,0,0-1.3-.86,3.91,3.91,0,0,0-1.51-.3h-2.94v10h-2.07V34.28h5A5.8,5.8,0,0,1,175.77,34.76Z" transform="translate(-4.46 -4.15)"/><path class="cls-3" d="M186.6,34A6.24,6.24,0,0,1,191,35.86a6.42,6.42,0,0,1,1.35,2,6.32,6.32,0,0,1,0,4.88A6.33,6.33,0,0,1,189,46.09a6.32,6.32,0,0,1-4.88,0,6.42,6.42,0,0,1-2-1.35,6.25,6.25,0,0,1-1.34-6.88,6.22,6.22,0,0,1,1.34-2,6.42,6.42,0,0,1,2-1.35A6.29,6.29,0,0,1,186.6,34Zm0,2.07a4.12,4.12,0,0,0-1.6.32,4.46,4.46,0,0,0-1.37.92,4.29,4.29,0,0,0-.92,1.37,4.12,4.12,0,0,0-.32,1.6,4.24,4.24,0,0,0,1.24,3,4.26,4.26,0,0,0,1.37.91,4.11,4.11,0,0,0,1.6.31,4.16,4.16,0,0,0,1.61-.31,4.19,4.19,0,0,0,2.29-2.29,4.2,4.2,0,0,0,.31-1.61,4.13,4.13,0,0,0-1.23-3,4.24,4.24,0,0,0-1.37-.92A4.17,4.17,0,0,0,186.6,36.09Z" transform="translate(-4.46 -4.15)"/><path class="cls-3" d="M202.76,38.61a4.29,4.29,0,0,1-.18,1.25,4.58,4.58,0,0,1-.5,1.1,4.37,4.37,0,0,1-.77.9,4.79,4.79,0,0,1-1,.67l2.46,3.82H200.3L198.11,43h-1.42l.85-2.07h.89a2.21,2.21,0,0,0,1.61-.68,2.15,2.15,0,0,0,.48-.74A2.27,2.27,0,0,0,200,37a2.24,2.24,0,0,0-1.61-.67H196v10h-2.06V34.28h4.51a4.19,4.19,0,0,1,1.69.35,4.41,4.41,0,0,1,2.3,2.3A4.1,4.1,0,0,1,202.76,38.61Z" transform="translate(-4.46 -4.15)"/><path class="cls-3" d="M216.63,46.35h-2.28l-.93-2.06-.93-2.07L210,36.8l-2.45,5.42h3.14l.93,2.07h-5l-.93,2.06h-2.28l5.45-12.07h2.28Z" transform="translate(-4.46 -4.15)"/><path class="cls-3" d="M228.2,34.76a5.94,5.94,0,0,1,1.93,1.29A6.35,6.35,0,0,1,231.42,38a6,6,0,0,1,.47,2.35,5.93,5.93,0,0,1-.47,2.34,6,6,0,0,1-3.22,3.22,5.79,5.79,0,0,1-2.34.47h-2.14l.84-2.06h1.3a3.92,3.92,0,0,0,1.51-.31,4,4,0,0,0,1.3-.85,4.08,4.08,0,0,0,.85-1.29,3.85,3.85,0,0,0,.3-1.52,3.92,3.92,0,0,0-.3-1.52,3.87,3.87,0,0,0-2.15-2.15,3.91,3.91,0,0,0-1.51-.3h-2.94v10h-2.07V34.28h5A5.8,5.8,0,0,1,228.2,34.76Z" transform="translate(-4.46 -4.15)"/><path class="cls-3" d="M235,36.35v2.93h4.5l.52,2.07h-5v2.94h6.05v2.06h-8.12V34.28h8.12v2.07Z" transform="translate(-4.46 -4.15)"/><path class="cls-3" d="M114.61,60.6a3.68,3.68,0,0,1,1.11,1.24,3.49,3.49,0,0,1,.41,1.66v0a3.33,3.33,0,0,1-.28,1.37A3.38,3.38,0,0,1,115.1,66a4.07,4.07,0,0,1-1.12.75,3.49,3.49,0,0,1-1.37.27h-3.43L110,65h2.6a1.43,1.43,0,0,0,1.45-1.45v0a1.41,1.41,0,0,0-.42-1,1.4,1.4,0,0,0-1-.42h-4.22v5h-2.07V55h5.45a3.52,3.52,0,0,1,1.37.27A3.53,3.53,0,0,1,115,57.13a3.49,3.49,0,0,1,.28,1.37v0a3.16,3.16,0,0,1-.19,1.11A3.48,3.48,0,0,1,114.61,60.6Zm-1.39-2.1a1.37,1.37,0,0,0-.43-1,1.39,1.39,0,0,0-1-.42h-3.38V60h3.38a1.45,1.45,0,0,0,1.45-1.45Z" transform="translate(-4.46 -4.15)"/><path class="cls-3" d="M127.31,55v7.24a5,5,0,0,1-1.49,3.59,5.15,5.15,0,0,1-1.61,1.09,5,5,0,0,1-2,.39,5.07,5.07,0,0,1-2-.39,5.14,5.14,0,0,1-2.7-2.7,5.07,5.07,0,0,1-.39-2V55h2.07v7.24a2.94,2.94,0,0,0,.22,1.15A3.14,3.14,0,0,0,121.09,65a2.94,2.94,0,0,0,1.15.22,2.89,2.89,0,0,0,2.12-.88,3,3,0,0,0,.65-1,3,3,0,0,0,.23-1.15V55Z" transform="translate(-4.46 -4.15)"/><path class="cls-3" d="M136.93,63.6a3.94,3.94,0,0,1-.28,1.53,3.09,3.09,0,0,1-.78,1.15,3.61,3.61,0,0,1-1.23.74,4.91,4.91,0,0,1-1.62.26,6.83,6.83,0,0,1-2.56-.46,7.36,7.36,0,0,1-1.84-1l1.43-1.44a4.06,4.06,0,0,0,1.28.8,3.27,3.27,0,0,0,.81.22,3.91,3.91,0,0,0,.62,0,2.67,2.67,0,0,0,.82-.11,2.1,2.1,0,0,0,.64-.3,1.36,1.36,0,0,0,.59-1.14,1.14,1.14,0,0,0-.31-.78,1.78,1.78,0,0,0-.62-.44,3.19,3.19,0,0,0-.66-.28l-.62-.19a.56.56,0,0,0-.15,0,.22.22,0,0,1-.12-.05l-.11,0c-.24-.07-.59-.19-1-.36a6.56,6.56,0,0,1-1.36-.71,3.06,3.06,0,0,1-1.56-2.59,3.7,3.7,0,0,1,.35-1.71,3.15,3.15,0,0,1,.92-1.14,3.69,3.69,0,0,1,1.27-.63,5.08,5.08,0,0,1,1.37-.19,6.63,6.63,0,0,1,2.09.29,7.64,7.64,0,0,1,1.34.59,2.79,2.79,0,0,1,.44.3l.32.27-1.46,1.48a3.85,3.85,0,0,0-1-.7,3.38,3.38,0,0,0-1.52-.35,2.72,2.72,0,0,0-.69.09,2.34,2.34,0,0,0-.6.22,1.39,1.39,0,0,0-.76,1.22,1.1,1.1,0,0,0,.31.8,1.93,1.93,0,0,0,.62.46,3.44,3.44,0,0,0,.69.28l.67.19.21,0a2.93,2.93,0,0,0,.33.1,6,6,0,0,1,.56.21q.33.14.72.33a7.68,7.68,0,0,1,.77.45A3.13,3.13,0,0,1,136.93,63.6Z" transform="translate(-4.46 -4.15)"/><path class="cls-3" d="M140,57.05V60h4.5l.51,2.07h-5V65h6.05v2.07H138V55h8.13v2.07Z" transform="translate(-4.46 -4.15)"/><path class="cls-3" d="M155.71,63.6a4.13,4.13,0,0,1-.27,1.53,3.24,3.24,0,0,1-.79,1.15,3.61,3.61,0,0,1-1.23.74,4.83,4.83,0,0,1-1.62.26,6.74,6.74,0,0,1-2.55-.46,7.43,7.43,0,0,1-1.85-1l1.43-1.44a4.18,4.18,0,0,0,1.28.8,3.39,3.39,0,0,0,.81.22,3.91,3.91,0,0,0,.62,0,2.67,2.67,0,0,0,.82-.11A2,2,0,0,0,153,65a1.34,1.34,0,0,0,.59-1.14,1.14,1.14,0,0,0-.31-.78,1.78,1.78,0,0,0-.62-.44,3.19,3.19,0,0,0-.66-.28l-.62-.19a.48.48,0,0,0-.15,0,.22.22,0,0,1-.12-.05l-.11,0c-.24-.07-.58-.19-1-.36a6.76,6.76,0,0,1-1.35-.71A3.05,3.05,0,0,1,147,58.39a3.83,3.83,0,0,1,.35-1.71,3.26,3.26,0,0,1,.92-1.14,3.78,3.78,0,0,1,1.27-.63,5.08,5.08,0,0,1,1.37-.19A6.58,6.58,0,0,1,153,55a7.64,7.64,0,0,1,1.34.59,2.79,2.79,0,0,1,.44.3l.32.27-1.46,1.48a3.68,3.68,0,0,0-1-.7,3.35,3.35,0,0,0-1.52-.35,2.72,2.72,0,0,0-.69.09,2.34,2.34,0,0,0-.6.22,1.39,1.39,0,0,0-.76,1.22,1.1,1.1,0,0,0,.31.8,2,2,0,0,0,.62.46,3.44,3.44,0,0,0,.69.28l.67.19.21,0,.33.1.57.21c.22.09.45.2.71.33A6.71,6.71,0,0,1,154,61,3.11,3.11,0,0,1,155.71,63.6Z" transform="translate(-4.46 -4.15)"/><path class="cls-3" d="M108.47,87.75H106.4V75.69h2.07Z" transform="translate(-4.46 -4.15)"/><path class="cls-3" d="M118.92,75.66V87.73h-2.24l-4.84-8.26v8.26h-2.07V75.66H112l4.85,8.26V75.66Z" transform="translate(-4.46 -4.15)"/><path class="cls-3" d="M129,77.75H125.5v10h-2.07v-10h-3.56V75.67H129Z" transform="translate(-4.46 -4.15)"/><path class="cls-3" d="M132.05,77.75v2.93h4.5l.52,2.07h-5v2.93h6v2.07H130V75.67h8.12v2.08Z" transform="translate(-4.46 -4.15)"/><path class="cls-3" d="M148.07,80a4.24,4.24,0,0,1-.18,1.25,4.41,4.41,0,0,1-.5,1.1,4.33,4.33,0,0,1-1.78,1.57l2.46,3.83h-2.46l-2.19-3.4H142l.85-2.07h.89a2.2,2.2,0,0,0,1.61-.67,2.77,2.77,0,0,0,.48-.74,2.29,2.29,0,0,0,0-1.73,2.39,2.39,0,0,0-.48-.72,2.2,2.2,0,0,0-1.61-.67h-2.45v10h-2.07V75.67h4.52a4.19,4.19,0,0,1,1.69.35,4.41,4.41,0,0,1,2.3,2.3A4.17,4.17,0,0,1,148.07,80Z" transform="translate(-4.46 -4.15)"/><path class="cls-3" d="M155.38,76a4.42,4.42,0,0,1,1.38.93,4.35,4.35,0,0,1,.94,1.37,4.35,4.35,0,0,1,0,3.37,4.28,4.28,0,0,1-.94,1.38,4.44,4.44,0,0,1-1.38.94,4.14,4.14,0,0,1-1.68.34H152l.85-2.07h.88A2.29,2.29,0,0,0,156,80a2.07,2.07,0,0,0-.67-1.58,2.18,2.18,0,0,0-1.6-.67h-2.44v10h-2.07V75.67h4.51A4.14,4.14,0,0,1,155.38,76Z" transform="translate(-4.46 -4.15)"/><path class="cls-3" d="M167.92,80a4.24,4.24,0,0,1-.18,1.25,4.08,4.08,0,0,1-.5,1.1,4.13,4.13,0,0,1-.77.9,4,4,0,0,1-1,.67l2.46,3.83h-2.46l-2.19-3.4h-1.42l.85-2.07h.89a2.18,2.18,0,0,0,1.61-.67,2.35,2.35,0,0,0,.48-.74,2.29,2.29,0,0,0,0-1.73,2.07,2.07,0,0,0-.48-.72,2.18,2.18,0,0,0-1.61-.67h-2.44v10h-2.07V75.67h4.51a4.19,4.19,0,0,1,1.69.35,4.41,4.41,0,0,1,2.3,2.3A4.17,4.17,0,0,1,167.92,80Z" transform="translate(-4.46 -4.15)"/><path class="cls-3" d="M175.15,75.42a6.08,6.08,0,0,1,2.44.49,6.27,6.27,0,0,1,3.35,3.34,6.29,6.29,0,0,1,.49,2.44,6.22,6.22,0,0,1-.49,2.44,6.25,6.25,0,0,1-3.35,3.35,6.32,6.32,0,0,1-4.88,0,6.28,6.28,0,0,1-2-1.34,6.35,6.35,0,0,1-1.35-2,6.22,6.22,0,0,1-.49-2.44,6.29,6.29,0,0,1,.49-2.44,6.42,6.42,0,0,1,1.35-2,6.28,6.28,0,0,1,2-1.34A6.08,6.08,0,0,1,175.15,75.42Zm0,2.07a4.11,4.11,0,0,0-1.6.31,4.38,4.38,0,0,0-1.37.93,4.15,4.15,0,0,0-1.24,3,4.19,4.19,0,0,0,1.24,3,4.16,4.16,0,0,0,1.37.91,4.11,4.11,0,0,0,1.6.31,4.17,4.17,0,0,0,3-1.22,4,4,0,0,0,.92-1.37,4.4,4.4,0,0,0,.31-1.62,4.34,4.34,0,0,0-.31-1.6,4,4,0,0,0-.92-1.36,4.38,4.38,0,0,0-1.37-.93A4.2,4.2,0,0,0,175.15,77.49Z" transform="translate(-4.46 -4.15)"/><path class="cls-3" d="M185.24,87.75l-4.83-12.08h2.24l3.68,9.2,3.41-9.2H192l-4.49,12.08Z" transform="translate(-4.46 -4.15)"/><path class="cls-3" d="M194.88,87.75h-2.07V75.69h2.07Z" transform="translate(-4.46 -4.15)"/><path class="cls-3" d="M205.33,75.66V87.73h-2.24l-4.85-8.26v8.26h-2.07V75.66h2.25l4.84,8.26V75.66Z" transform="translate(-4.46 -4.15)"/><path class="cls-3" d="M217,86.13a6.53,6.53,0,0,1-2,1.35,6.35,6.35,0,0,1-4.89,0,6.28,6.28,0,0,1-2-1.34,6.35,6.35,0,0,1-1.35-2,6,6,0,0,1-.49-2.44,6.11,6.11,0,0,1,.49-2.44,6.42,6.42,0,0,1,1.35-2,6.28,6.28,0,0,1,2-1.34,6.35,6.35,0,0,1,4.89,0,6.53,6.53,0,0,1,2,1.35l-1.47,1.47a4.33,4.33,0,0,0-1.36-.93,4.36,4.36,0,0,0-3.23,0,4.45,4.45,0,0,0-1.36.93,4.15,4.15,0,0,0-1.24,3,4.24,4.24,0,0,0,5.83,3.9,4.12,4.12,0,0,0,1.36-.91Z" transform="translate(-4.46 -4.15)"/><path class="cls-3" d="M219.94,87.75h-2.07V75.69h2.07Z" transform="translate(-4.46 -4.15)"/><path class="cls-3" d="M234,87.75H231.7l-.93-2.07-.93-2.07-2.45-5.42-2.45,5.42h3.14l.93,2.07h-5l-.93,2.07H220.8l5.45-12.08h2.28Z" transform="translate(-4.46 -4.15)"/><path class="cls-3" d="M241.57,85.68v2.07h-6.81V75.69h2.07v10Z" transform="translate(-4.46 -4.15)"/></svg>