<svg id="Layer_1" data-name="Layer 1" xmlns="http://www.w3.org/2000/svg" xmlns:xlink="http://www.w3.org/1999/xlink" viewBox="0 0 391.51 688.51"><defs><style>.cls-1{fill:#f1f1f2;stroke:#231f20;stroke-miterlimit:10;stroke-width:5px;}.cls-2{fill:url(#radial-gradient);}.cls-3{fill:url(#radial-gradient-2);}.cls-4{fill:url(#radial-gradient-3);}.cls-5{fill:#d0d2d3;}.cls-6{fill:#929497;}.cls-7{fill:#25a9e0;}.cls-14,.cls-8{fill:#fff;}.cls-9{font-size:21px;}.cls-13,.cls-9{fill:#231f20;}.cls-14,.cls-9{font-family:MyriadPro-Bold, Myriad Pro;font-weight:700;}.cls-10{letter-spacing:0.01em;}.cls-11{letter-spacing:0em;}.cls-12{letter-spacing:0em;}.cls-14{font-size:30.8px;}</style><radialGradient id="radial-gradient" cx="193.73" cy="643.84" r="21.65" gradientUnits="userSpaceOnUse"><stop offset="0.34" stop-color="#ec1c24"/><stop offset="1" stop-color="#be1e2d"/></radialGradient><radialGradient id="radial-gradient-2" cx="213.64" cy="611.16" fx="199.75985718638904" r="29.04" gradientTransform="translate(317.46 -3.13) rotate(29.65) scale(1 0.96)" gradientUnits="userSpaceOnUse"><stop offset="0.25" stop-color="#ec1c24"/><stop offset="1" stop-color="#be1e2d"/></radialGradient><radialGradient id="radial-gradient-3" cx="176.63" cy="612.16" fx="176.62986817943965" r="34.43" gradientTransform="matrix(0.57, -0.82, 0.82, 0.58, -428.65, 404.76)" xlink:href="#radial-gradient-2"/></defs><title>palnimetria-webArtboard 4</title><rect class="cls-1" x="50.17" y="18.77" width="291.01" height="619.1" rx="53.65" ry="53.65"/><polygon class="cls-2" points="233.84 645.19 233.84 600.52 193.43 577.13 153.02 600.52 153.02 645.19 193.43 668.58 233.84 645.19"/><polygon class="cls-3" points="193.43 622.6 233.85 645.19 233.85 600.52 193.43 577.13 193.43 622.6"/><polygon class="cls-4" points="193.43 622.6 153.02 645.19 153.02 600.52 193.43 577.13 193.43 622.6"/><path class="cls-5" d="M76.22,49.08h30a9.12,9.12,0,0,1,9.12,9.12v37a0,0,0,0,1,0,0H67.11a0,0,0,0,1,0,0v-37A9.12,9.12,0,0,1,76.22,49.08Z"/><path class="cls-5" d="M127.83,49.08h30a9.12,9.12,0,0,1,9.12,9.12v37a0,0,0,0,1,0,0H118.71a0,0,0,0,1,0,0v-37A9.12,9.12,0,0,1,127.83,49.08Z"/><path class="cls-5" d="M231.41,49.08h30a9.12,9.12,0,0,1,9.12,9.12v37a0,0,0,0,1,0,0H222.29a0,0,0,0,1,0,0v-37A9.12,9.12,0,0,1,231.41,49.08Z"/><path class="cls-5" d="M283,49.08h30a9.12,9.12,0,0,1,9.12,9.12v37a0,0,0,0,1,0,0H273.9a0,0,0,0,1,0,0v-37A9.12,9.12,0,0,1,283,49.08Z"/><path class="cls-5" d="M76.22,101.75h30a9.12,9.12,0,0,1,9.12,9.12v37a0,0,0,0,1,0,0H67.11a0,0,0,0,1,0,0v-37A9.12,9.12,0,0,1,76.22,101.75Z"/><path class="cls-5" d="M127.83,101.75h30a9.12,9.12,0,0,1,9.12,9.12v37a0,0,0,0,1,0,0H118.71a0,0,0,0,1,0,0v-37A9.12,9.12,0,0,1,127.83,101.75Z"/><path class="cls-5" d="M231.41,101.75h30a9.12,9.12,0,0,1,9.12,9.12v37a0,0,0,0,1,0,0H222.29a0,0,0,0,1,0,0v-37A9.12,9.12,0,0,1,231.41,101.75Z"/><path class="cls-5" d="M283,101.75h30a9.12,9.12,0,0,1,9.12,9.12v37a0,0,0,0,1,0,0H273.9a0,0,0,0,1,0,0v-37A9.12,9.12,0,0,1,283,101.75Z"/><path class="cls-5" d="M76.22,154.42h30a9.12,9.12,0,0,1,9.12,9.12v37a0,0,0,0,1,0,0H67.11a0,0,0,0,1,0,0v-37A9.12,9.12,0,0,1,76.22,154.42Z"/><path class="cls-5" d="M127.83,154.42h30a9.12,9.12,0,0,1,9.12,9.12v37a0,0,0,0,1,0,0H118.71a0,0,0,0,1,0,0v-37A9.12,9.12,0,0,1,127.83,154.42Z"/><path class="cls-5" d="M231.41,154.42h30a9.12,9.12,0,0,1,9.12,9.12v37a0,0,0,0,1,0,0H222.29a0,0,0,0,1,0,0v-37A9.12,9.12,0,0,1,231.41,154.42Z"/><path class="cls-5" d="M283,154.42h30a9.12,9.12,0,0,1,9.12,9.12v37a0,0,0,0,1,0,0H273.9a0,0,0,0,1,0,0v-37A9.12,9.12,0,0,1,283,154.42Z"/><path class="cls-6" d="M76.22,207.08h30a9.12,9.12,0,0,1,9.12,9.12v37a0,0,0,0,1,0,0H67.11a0,0,0,0,1,0,0v-37A9.12,9.12,0,0,1,76.22,207.08Z"/><path class="cls-6" d="M127.83,207.08h30a9.12,9.12,0,0,1,9.12,9.12v37a0,0,0,0,1,0,0H118.71a0,0,0,0,1,0,0v-37a9.12,9.12,0,0,1,9.12-9.12Z"/><path class="cls-6" d="M231.41,207.08h30a9.12,9.12,0,0,1,9.12,9.12v37a0,0,0,0,1,0,0H222.29a0,0,0,0,1,0,0v-37A9.12,9.12,0,0,1,231.41,207.08Z"/><path class="cls-6" d="M283,207.08h30a9.12,9.12,0,0,1,9.12,9.12v37a0,0,0,0,1,0,0H273.9a0,0,0,0,1,0,0v-37A9.12,9.12,0,0,1,283,207.08Z"/><path class="cls-6" d="M76.22,259.75h30a9.12,9.12,0,0,1,9.12,9.12v37a0,0,0,0,1,0,0H67.11a0,0,0,0,1,0,0v-37A9.12,9.12,0,0,1,76.22,259.75Z"/><path class="cls-6" d="M127.83,259.75h30a9.12,9.12,0,0,1,9.12,9.12v37a0,0,0,0,1,0,0H118.71a0,0,0,0,1,0,0v-37A9.12,9.12,0,0,1,127.83,259.75Z"/><path class="cls-6" d="M231.41,259.75h30a9.12,9.12,0,0,1,9.12,9.12v37a0,0,0,0,1,0,0H222.29a0,0,0,0,1,0,0v-37A9.12,9.12,0,0,1,231.41,259.75Z"/><path class="cls-6" d="M283,259.75h30a9.12,9.12,0,0,1,9.12,9.12v37a0,0,0,0,1,0,0H273.9a0,0,0,0,1,0,0v-37A9.12,9.12,0,0,1,283,259.75Z"/><path class="cls-6" d="M76.22,312.42h30a9.12,9.12,0,0,1,9.12,9.12v37a0,0,0,0,1,0,0H67.11a0,0,0,0,1,0,0v-37A9.12,9.12,0,0,1,76.22,312.42Z"/><path class="cls-6" d="M127.83,312.42h30a9.12,9.12,0,0,1,9.12,9.12v37a0,0,0,0,1,0,0H118.71a0,0,0,0,1,0,0v-37a9.12,9.12,0,0,1,9.12-9.12Z"/><path class="cls-6" d="M231.41,312.42h30a9.12,9.12,0,0,1,9.12,9.12v37a0,0,0,0,1,0,0H222.29a0,0,0,0,1,0,0v-37A9.12,9.12,0,0,1,231.41,312.42Z"/><path class="cls-6" d="M283,312.42h30a9.12,9.12,0,0,1,9.12,9.12v37a0,0,0,0,1,0,0H273.9a0,0,0,0,1,0,0v-37a9.12,9.12,0,0,1,9.12-9.12Z"/><path class="cls-6" d="M76.22,365.08h30a9.12,9.12,0,0,1,9.12,9.12v37a0,0,0,0,1,0,0H67.11a0,0,0,0,1,0,0v-37A9.12,9.12,0,0,1,76.22,365.08Z"/><path class="cls-6" d="M127.83,365.08h30a9.12,9.12,0,0,1,9.12,9.12v37a0,0,0,0,1,0,0H118.71a0,0,0,0,1,0,0v-37a9.12,9.12,0,0,1,9.12-9.12Z"/><path class="cls-6" d="M231.41,365.08h30a9.12,9.12,0,0,1,9.12,9.12v37a0,0,0,0,1,0,0H222.29a0,0,0,0,1,0,0v-37A9.12,9.12,0,0,1,231.41,365.08Z"/><path class="cls-6" d="M283,365.08h30a9.12,9.12,0,0,1,9.12,9.12v37a0,0,0,0,1,0,0H273.9a0,0,0,0,1,0,0v-37a9.12,9.12,0,0,1,9.12-9.12Z"/><path class="cls-7" d="M76.22,417.75h30a9.12,9.12,0,0,1,9.12,9.12v37a0,0,0,0,1,0,0H67.11a0,0,0,0,1,0,0v-37A9.12,9.12,0,0,1,76.22,417.75Z"/><path class="cls-7" d="M127.83,417.75h30a9.12,9.12,0,0,1,9.12,9.12v37a0,0,0,0,1,0,0H118.71a0,0,0,0,1,0,0v-37A9.12,9.12,0,0,1,127.83,417.75Z"/><path class="cls-7" d="M231.41,417.75h30a9.12,9.12,0,0,1,9.12,9.12v37a0,0,0,0,1,0,0H222.29a0,0,0,0,1,0,0v-37A9.12,9.12,0,0,1,231.41,417.75Z"/><path class="cls-7" d="M283,417.75h30a9.12,9.12,0,0,1,9.12,9.12v37a0,0,0,0,1,0,0H273.9a0,0,0,0,1,0,0v-37a9.12,9.12,0,0,1,9.12-9.12Z"/><path class="cls-7" d="M76.22,470.42h30a9.12,9.12,0,0,1,9.12,9.12v37a0,0,0,0,1,0,0H67.11a0,0,0,0,1,0,0v-37A9.12,9.12,0,0,1,76.22,470.42Z"/><path class="cls-7" d="M127.83,470.42h30a9.12,9.12,0,0,1,9.12,9.12v37a0,0,0,0,1,0,0H118.71a0,0,0,0,1,0,0v-37a9.12,9.12,0,0,1,9.12-9.12Z"/><path class="cls-7" d="M231.41,470.42h30a9.12,9.12,0,0,1,9.12,9.12v37a0,0,0,0,1,0,0H222.29a0,0,0,0,1,0,0v-37A9.12,9.12,0,0,1,231.41,470.42Z"/><path class="cls-7" d="M283,470.42h30a9.12,9.12,0,0,1,9.12,9.12v37a0,0,0,0,1,0,0H273.9a0,0,0,0,1,0,0v-37a9.12,9.12,0,0,1,9.12-9.12Z"/><path class="cls-7" d="M76.22,523.08h30a9.12,9.12,0,0,1,9.12,9.12v37a0,0,0,0,1,0,0H67.11a0,0,0,0,1,0,0v-37A9.12,9.12,0,0,1,76.22,523.08Z"/><path class="cls-7" d="M127.83,523.08h30a9.12,9.12,0,0,1,9.12,9.12v37a0,0,0,0,1,0,0H118.71a0,0,0,0,1,0,0v-37A9.12,9.12,0,0,1,127.83,523.08Z"/><path class="cls-7" d="M231.41,523.08h30a9.12,9.12,0,0,1,9.12,9.12v37a0,0,0,0,1,0,0H222.29a0,0,0,0,1,0,0v-37A9.12,9.12,0,0,1,231.41,523.08Z"/><path class="cls-7" d="M283,523.08h30a9.12,9.12,0,0,1,9.12,9.12v37a0,0,0,0,1,0,0H273.9a0,0,0,0,1,0,0v-37a9.12,9.12,0,0,1,9.12-9.12Z"/><path class="cls-8" d="M223.52,620.37c1.59-1.77,6.85-8,5.5-12.46a.56.56,0,0,0,0-.12,6.23,6.23,0,0,0-11.84-.13,2.41,2.41,0,0,1-.08.25c-1.35,4.46,3.95,10.7,5.56,12.46A.62.62,0,0,0,223.52,620.37Zm-2.3-11.3A1.83,1.83,0,1,1,223,610.9,1.81,1.81,0,0,1,221.22,609.07Z"/><path class="cls-8" d="M226,622.54c0-.3-.39-.4-.62-.17l-2,2a.44.44,0,0,1-.6,0l-2.25-2a.5.5,0,0,0-.84.4v15.54a2.54,2.54,0,0,1-1.61,2.21l-23.66,13.66a2.79,2.79,0,0,1-2.88-.07L168.7,641a3.1,3.1,0,0,1-1.47-2.67V610.84a3.32,3.32,0,0,1,1.35-2.81l11.74-6.77c4.1-2.38,7.46,6.21,4.61,7.91-1.89,1.13-6.42,3.77-9.61,5.65a3.08,3.08,0,0,0-1.53,2.43,3,3,0,0,0,2.17,3.08h0l3.82,1.13c1.31.39,1.73,1.67,1.73,3,0,3.38,0,9.48,0,11.12,0,8,5,13,11.54,13,8.35,0,11.54-6.85,11.54-13.21V627a.4.4,0,0,1,.59-.4,35.74,35.74,0,0,1,3.5,1.78c2.16,1.31,6.79-1.61,6.79-5.44,0-2.27.29-4.17-.3-5.68-1.69-4.3-6.12-6.71-6.67-7,0,0,6.51,1.07,6.68-3.57.26-6.68-.49-9-3.59-10.68-1-.57-12.37-7.14-13.74-7.94-2.24-1.3-3.8-.47-3.8,2.11V610a4.79,4.79,0,0,0,2.3,4.1l.73.44a1.88,1.88,0,0,0,2.86-1.6c0-5.29.06-14.15.06-14.15,0-.5.59-.56,1-.31,1,.6,6.86,4,7.51,4.34,2,1.12-.25,5.39-5.52,2.19h0a.68.68,0,0,0-.86.66v5.08a1.23,1.23,0,0,0,.73,1.13l.29.15a14,14,0,0,1,5.39,5.87,2.61,2.61,0,0,1,.22,2.29c-.31.54-1.06,1.57-2.13.89l-4.5-2.4c-2-1.08-2.8.68-2.81,2.94,0,.83,0,.3,0,.3s0,1.23,0,2.81v1.89c0,1.79,0,3.61,0,4.51,0,.52,0,3.54,0,4,0,4.5-2,8.13-6.24,8.13-2.85,0-6.28-1.43-6.28-8.06V622.18c0-5-2.59-4.94-2.92-4.93v0l2.89-1.43a2.2,2.2,0,0,0,.26-.15c10.24-6.43,3.22-28.83-6.68-23l-17.8,10.27a3.73,3.73,0,0,0-1.65,2.9c0,.19,0,.41,0,.61,0,6.49,0,31.09,0,31.76,0,1,0,2.57,0,2.57v.13a3.52,3.52,0,0,0,1.31,2.89c.53.3,28.65,16.53,29.53,17a2.68,2.68,0,0,0,2.71,0c.56-.31,29.32-16.93,30.11-17.38A2.64,2.64,0,0,0,226,641V641C226,640.15,226,622.73,226,622.54Z"/><text class="cls-9" transform="translate(130.06 41.21)">P<tspan class="cls-10" x="12.2" y="0">L</tspan><tspan x="23.06" y="0">ANIM</tspan><tspan class="cls-11" x="75.07" y="0">E</tspan><tspan class="cls-12" x="86.39" y="0">TRIA</tspan></text><circle class="cls-13" cx="193.49" cy="67.29" r="18.21"/><text class="cls-14" transform="translate(183.28 76.38)">4</text></svg>