<svg id="Layer_1" data-name="Layer 1" xmlns="http://www.w3.org/2000/svg" xmlns:xlink="http://www.w3.org/1999/xlink" viewBox="0 0 391.51 688.51"><defs><style>.cls-1{fill:#f1f1f2;stroke:#231f20;stroke-miterlimit:10;stroke-width:5px;}.cls-2{fill:url(#radial-gradient);}.cls-3{fill:url(#radial-gradient-2);}.cls-4{fill:url(#radial-gradient-3);}.cls-5{fill:#d0d2d3;}.cls-6{fill:#929497;}.cls-7{fill:#25a9e0;}.cls-14,.cls-8{fill:#fff;}.cls-9{font-size:21px;}.cls-13,.cls-9{fill:#231f20;}.cls-14,.cls-9{font-family:MyriadPro-Bold, Myriad Pro;font-weight:700;}.cls-10{letter-spacing:0.01em;}.cls-11{letter-spacing:0em;}.cls-12{letter-spacing:0em;}.cls-14{font-size:30.8px;}</style><radialGradient id="radial-gradient" cx="195.61" cy="643.84" r="21.65" gradientUnits="userSpaceOnUse"><stop offset="0.34" stop-color="#ec1c24"/><stop offset="1" stop-color="#be1e2d"/></radialGradient><radialGradient id="radial-gradient-2" cx="215.52" cy="611.16" fx="201.64063322869325" r="29.04" gradientTransform="translate(317.71 -4.06) rotate(29.65) scale(1 0.96)" gradientUnits="userSpaceOnUse"><stop offset="0.25" stop-color="#ec1c24"/><stop offset="1" stop-color="#be1e2d"/></radialGradient><radialGradient id="radial-gradient-3" cx="178.51" cy="612.16" fx="178.51064422174386" r="34.43" gradientTransform="matrix(0.57, -0.82, 0.82, 0.58, -427.84, 406.3)" xlink:href="#radial-gradient-2"/></defs><title>palnimetria-webArtboard 2</title><rect class="cls-1" x="52.05" y="18.77" width="291.01" height="619.1" rx="53.65" ry="53.65"/><polygon class="cls-2" points="235.73 645.19 235.73 600.52 195.31 577.13 154.9 600.52 154.9 645.19 195.31 668.58 235.73 645.19"/><polygon class="cls-3" points="195.31 622.6 235.73 645.19 235.73 600.52 195.31 577.13 195.31 622.6"/><polygon class="cls-4" points="195.31 622.6 154.9 645.19 154.9 600.52 195.31 577.13 195.31 622.6"/><path class="cls-5" d="M78.1,49.08h30a9.12,9.12,0,0,1,9.12,9.12v37a0,0,0,0,1,0,0H69a0,0,0,0,1,0,0v-37A9.12,9.12,0,0,1,78.1,49.08Z"/><path class="cls-5" d="M129.71,49.08h30a9.12,9.12,0,0,1,9.12,9.12v37a0,0,0,0,1,0,0H120.59a0,0,0,0,1,0,0v-37A9.12,9.12,0,0,1,129.71,49.08Z"/><path class="cls-5" d="M233.29,49.08h30a9.12,9.12,0,0,1,9.12,9.12v37a0,0,0,0,1,0,0H224.17a0,0,0,0,1,0,0v-37a9.12,9.12,0,0,1,9.12-9.12Z"/><path class="cls-5" d="M284.9,49.08h30A9.12,9.12,0,0,1,324,58.2v37a0,0,0,0,1,0,0H275.78a0,0,0,0,1,0,0v-37a9.12,9.12,0,0,1,9.12-9.12Z"/><path class="cls-5" d="M78.1,101.75h30a9.12,9.12,0,0,1,9.12,9.12v37a0,0,0,0,1,0,0H69a0,0,0,0,1,0,0v-37a9.12,9.12,0,0,1,9.12-9.12Z"/><path class="cls-5" d="M129.71,101.75h30a9.12,9.12,0,0,1,9.12,9.12v37a0,0,0,0,1,0,0H120.59a0,0,0,0,1,0,0v-37A9.12,9.12,0,0,1,129.71,101.75Z"/><path class="cls-5" d="M233.29,101.75h30a9.12,9.12,0,0,1,9.12,9.12v37a0,0,0,0,1,0,0H224.17a0,0,0,0,1,0,0v-37a9.12,9.12,0,0,1,9.12-9.12Z"/><path class="cls-5" d="M284.9,101.75h30a9.12,9.12,0,0,1,9.12,9.12v37a0,0,0,0,1,0,0H275.78a0,0,0,0,1,0,0v-37a9.12,9.12,0,0,1,9.12-9.12Z"/><path class="cls-5" d="M78.1,154.42h30a9.12,9.12,0,0,1,9.12,9.12v37a0,0,0,0,1,0,0H69a0,0,0,0,1,0,0v-37a9.12,9.12,0,0,1,9.12-9.12Z"/><path class="cls-5" d="M129.71,154.42h30a9.12,9.12,0,0,1,9.12,9.12v37a0,0,0,0,1,0,0H120.59a0,0,0,0,1,0,0v-37A9.12,9.12,0,0,1,129.71,154.42Z"/><path class="cls-5" d="M233.29,154.42h30a9.12,9.12,0,0,1,9.12,9.12v37a0,0,0,0,1,0,0H224.17a0,0,0,0,1,0,0v-37a9.12,9.12,0,0,1,9.12-9.12Z"/><path class="cls-5" d="M284.9,154.42h30a9.12,9.12,0,0,1,9.12,9.12v37a0,0,0,0,1,0,0H275.78a0,0,0,0,1,0,0v-37A9.12,9.12,0,0,1,284.9,154.42Z"/><path class="cls-6" d="M78.1,207.08h30a9.12,9.12,0,0,1,9.12,9.12v37a0,0,0,0,1,0,0H69a0,0,0,0,1,0,0v-37a9.12,9.12,0,0,1,9.12-9.12Z"/><path class="cls-6" d="M129.71,207.08h30a9.12,9.12,0,0,1,9.12,9.12v37a0,0,0,0,1,0,0H120.59a0,0,0,0,1,0,0v-37a9.12,9.12,0,0,1,9.12-9.12Z"/><path class="cls-6" d="M233.29,207.08h30a9.12,9.12,0,0,1,9.12,9.12v37a0,0,0,0,1,0,0H224.17a0,0,0,0,1,0,0v-37a9.12,9.12,0,0,1,9.12-9.12Z"/><path class="cls-6" d="M284.9,207.08h30A9.12,9.12,0,0,1,324,216.2v37a0,0,0,0,1,0,0H275.78a0,0,0,0,1,0,0v-37A9.12,9.12,0,0,1,284.9,207.08Z"/><path class="cls-6" d="M78.1,259.75h30a9.12,9.12,0,0,1,9.12,9.12v37a0,0,0,0,1,0,0H69a0,0,0,0,1,0,0v-37a9.12,9.12,0,0,1,9.12-9.12Z"/><path class="cls-6" d="M129.71,259.75h30a9.12,9.12,0,0,1,9.12,9.12v37a0,0,0,0,1,0,0H120.59a0,0,0,0,1,0,0v-37a9.12,9.12,0,0,1,9.12-9.12Z"/><path class="cls-6" d="M233.29,259.75h30a9.12,9.12,0,0,1,9.12,9.12v37a0,0,0,0,1,0,0H224.17a0,0,0,0,1,0,0v-37a9.12,9.12,0,0,1,9.12-9.12Z"/><path class="cls-6" d="M284.9,259.75h30a9.12,9.12,0,0,1,9.12,9.12v37a0,0,0,0,1,0,0H275.78a0,0,0,0,1,0,0v-37A9.12,9.12,0,0,1,284.9,259.75Z"/><path class="cls-6" d="M78.1,312.42h30a9.12,9.12,0,0,1,9.12,9.12v37a0,0,0,0,1,0,0H69a0,0,0,0,1,0,0v-37A9.12,9.12,0,0,1,78.1,312.42Z"/><path class="cls-6" d="M129.71,312.42h30a9.12,9.12,0,0,1,9.12,9.12v37a0,0,0,0,1,0,0H120.59a0,0,0,0,1,0,0v-37A9.12,9.12,0,0,1,129.71,312.42Z"/><path class="cls-6" d="M233.29,312.42h30a9.12,9.12,0,0,1,9.12,9.12v37a0,0,0,0,1,0,0H224.17a0,0,0,0,1,0,0v-37a9.12,9.12,0,0,1,9.12-9.12Z"/><path class="cls-6" d="M284.9,312.42h30a9.12,9.12,0,0,1,9.12,9.12v37a0,0,0,0,1,0,0H275.78a0,0,0,0,1,0,0v-37A9.12,9.12,0,0,1,284.9,312.42Z"/><path class="cls-6" d="M78.1,365.08h30a9.12,9.12,0,0,1,9.12,9.12v37a0,0,0,0,1,0,0H69a0,0,0,0,1,0,0v-37A9.12,9.12,0,0,1,78.1,365.08Z"/><path class="cls-6" d="M129.71,365.08h30a9.12,9.12,0,0,1,9.12,9.12v37a0,0,0,0,1,0,0H120.59a0,0,0,0,1,0,0v-37A9.12,9.12,0,0,1,129.71,365.08Z"/><path class="cls-6" d="M233.29,365.08h30a9.12,9.12,0,0,1,9.12,9.12v37a0,0,0,0,1,0,0H224.17a0,0,0,0,1,0,0v-37A9.12,9.12,0,0,1,233.29,365.08Z"/><path class="cls-6" d="M284.9,365.08h30A9.12,9.12,0,0,1,324,374.2v37a0,0,0,0,1,0,0H275.78a0,0,0,0,1,0,0v-37a9.12,9.12,0,0,1,9.12-9.12Z"/><path class="cls-7" d="M78.1,417.75h30a9.12,9.12,0,0,1,9.12,9.12v37a0,0,0,0,1,0,0H69a0,0,0,0,1,0,0v-37A9.12,9.12,0,0,1,78.1,417.75Z"/><path class="cls-7" d="M129.71,417.75h30a9.12,9.12,0,0,1,9.12,9.12v37a0,0,0,0,1,0,0H120.59a0,0,0,0,1,0,0v-37a9.12,9.12,0,0,1,9.12-9.12Z"/><path class="cls-7" d="M233.29,417.75h30a9.12,9.12,0,0,1,9.12,9.12v37a0,0,0,0,1,0,0H224.17a0,0,0,0,1,0,0v-37A9.12,9.12,0,0,1,233.29,417.75Z"/><path class="cls-7" d="M284.9,417.75h30a9.12,9.12,0,0,1,9.12,9.12v37a0,0,0,0,1,0,0H275.78a0,0,0,0,1,0,0v-37A9.12,9.12,0,0,1,284.9,417.75Z"/><path class="cls-7" d="M78.1,470.42h30a9.12,9.12,0,0,1,9.12,9.12v37a0,0,0,0,1,0,0H69a0,0,0,0,1,0,0v-37A9.12,9.12,0,0,1,78.1,470.42Z"/><path class="cls-7" d="M129.71,470.42h30a9.12,9.12,0,0,1,9.12,9.12v37a0,0,0,0,1,0,0H120.59a0,0,0,0,1,0,0v-37a9.12,9.12,0,0,1,9.12-9.12Z"/><path class="cls-7" d="M233.29,470.42h30a9.12,9.12,0,0,1,9.12,9.12v37a0,0,0,0,1,0,0H224.17a0,0,0,0,1,0,0v-37A9.12,9.12,0,0,1,233.29,470.42Z"/><path class="cls-7" d="M284.9,470.42h30a9.12,9.12,0,0,1,9.12,9.12v37a0,0,0,0,1,0,0H275.78a0,0,0,0,1,0,0v-37A9.12,9.12,0,0,1,284.9,470.42Z"/><path class="cls-7" d="M78.1,523.08h30a9.12,9.12,0,0,1,9.12,9.12v37a0,0,0,0,1,0,0H69a0,0,0,0,1,0,0v-37a9.12,9.12,0,0,1,9.12-9.12Z"/><path class="cls-7" d="M129.71,523.08h30a9.12,9.12,0,0,1,9.12,9.12v37a0,0,0,0,1,0,0H120.59a0,0,0,0,1,0,0v-37a9.12,9.12,0,0,1,9.12-9.12Z"/><path class="cls-7" d="M233.29,523.08h30a9.12,9.12,0,0,1,9.12,9.12v37a0,0,0,0,1,0,0H224.17a0,0,0,0,1,0,0v-37A9.12,9.12,0,0,1,233.29,523.08Z"/><path class="cls-7" d="M284.9,523.08h30A9.12,9.12,0,0,1,324,532.2v37a0,0,0,0,1,0,0H275.78a0,0,0,0,1,0,0v-37A9.12,9.12,0,0,1,284.9,523.08Z"/><path class="cls-8" d="M225.4,620.37c1.59-1.77,6.85-8,5.5-12.46a.56.56,0,0,0,0-.12,6.23,6.23,0,0,0-11.84-.13,2.41,2.41,0,0,1-.08.25c-1.35,4.46,3.95,10.7,5.56,12.46A.62.62,0,0,0,225.4,620.37Zm-2.3-11.3a1.83,1.83,0,1,1,1.82,1.83A1.81,1.81,0,0,1,223.1,609.07Z"/><path class="cls-8" d="M227.89,622.54c0-.3-.39-.4-.62-.17l-2.05,2a.44.44,0,0,1-.6,0l-2.25-2a.5.5,0,0,0-.84.4v15.54a2.54,2.54,0,0,1-1.61,2.21l-23.66,13.66a2.79,2.79,0,0,1-2.88-.07L170.58,641a3.1,3.1,0,0,1-1.47-2.67V610.84a3.32,3.32,0,0,1,1.35-2.81l11.74-6.77c4.1-2.38,7.46,6.21,4.61,7.91-1.89,1.13-6.42,3.77-9.61,5.65a3.08,3.08,0,0,0-1.53,2.43,3,3,0,0,0,2.17,3.08h0l3.82,1.13c1.31.39,1.73,1.67,1.73,3,0,3.38,0,9.48,0,11.12,0,8,5,13,11.54,13,8.35,0,11.54-6.85,11.54-13.21V627a.41.41,0,0,1,.6-.4,36.59,36.59,0,0,1,3.49,1.78c2.16,1.31,6.79-1.61,6.79-5.44,0-2.27.29-4.17-.3-5.68-1.69-4.3-6.12-6.71-6.67-7,0,0,6.51,1.07,6.68-3.57.26-6.68-.49-9-3.58-10.68-1-.57-12.38-7.14-13.75-7.94-2.23-1.3-3.8-.47-3.8,2.11V610a4.79,4.79,0,0,0,2.3,4.1l.73.44a1.88,1.88,0,0,0,2.86-1.6c0-5.29.06-14.15.06-14.15,0-.5.59-.56,1-.31,1,.6,6.86,4,7.52,4.34,2,1.12-.26,5.39-5.53,2.19h0a.69.69,0,0,0-.87.66v5.08a1.23,1.23,0,0,0,.73,1.13l.29.15a14,14,0,0,1,5.39,5.87,2.61,2.61,0,0,1,.22,2.29c-.31.54-1.06,1.57-2.13.89l-4.5-2.4c-2-1.08-2.8.68-2.81,2.94,0,.83,0,.3,0,.3s0,1.23,0,2.81v1.89c0,1.79,0,3.61,0,4.51,0,.52,0,3.54,0,4,0,4.5-2,8.13-6.24,8.13-2.85,0-6.28-1.43-6.28-8.06V622.18c0-5-2.59-4.94-2.92-4.93v0l2.89-1.43c.09,0,.18-.09.27-.15,10.23-6.43,3.21-28.83-6.69-23l-17.8,10.27a3.69,3.69,0,0,0-1.64,2.9c0,.19,0,.41,0,.61,0,6.49,0,31.09,0,31.76,0,1,0,2.57,0,2.57v.13a3.49,3.49,0,0,0,1.3,2.89c.53.3,28.65,16.53,29.53,17a2.7,2.7,0,0,0,2.72,0l30.1-17.38a2.64,2.64,0,0,0,1.5-2.38V641C227.88,640.15,227.89,622.73,227.89,622.54Z"/><text class="cls-9" transform="translate(131.94 41.21)">P<tspan class="cls-10" x="12.2" y="0">L</tspan><tspan x="23.06" y="0">ANIM</tspan><tspan class="cls-11" x="75.07" y="0">E</tspan><tspan class="cls-12" x="86.39" y="0">TRIA</tspan></text><circle class="cls-13" cx="197.55" cy="67.29" r="18.21"/><text class="cls-14" transform="translate(189.34 77.38)">2</text></svg>